<svg width="333" height="93" viewBox="0 0 333 93" fill="none" xmlns="http://www.w3.org/2000/svg">
<path d="M91.7235 19.4976C83.5929 17.064 82.3646 14.9866 82.3646 12.2563C82.3646 9.16983 85.1722 6.855 89.2668 6.855C93.4783 6.855 96.2275 9.40725 97.0464 14.9866H101.433C100.556 7.38919 96.6954 2.93759 89.3838 2.93759C82.0136 2.93759 78.1531 7.44855 78.1531 12.8498C78.1531 18.6666 82.3646 21.2188 88.9158 23.1182C95.4671 25.0769 98.2162 26.8575 98.2162 30.6562C98.2162 34.2175 95.1161 36.8885 89.9102 36.8885C85.4062 36.8885 81.9551 34.0988 81.1947 28.5195H76.8662C77.7436 36.0575 82.3061 40.8652 89.9102 40.8652C98.4502 40.8652 102.545 36.1169 102.545 30.7156C102.545 23.9492 97.9238 21.3969 91.7235 19.4976Z" fill="white"/>
<path d="M134.073 36.2359H124.421V7.62688H134.073V3.70947H110.441V7.62688H120.093V36.2359H110.441V40.2126H134.073V36.2359Z" fill="white"/>
<path d="M154.662 3.64996H142.788V40.1531H154.662C163.319 40.2125 167.706 34.0396 167.706 24.6022V19.2603C167.706 9.82285 163.261 3.64996 154.662 3.64996ZM163.378 24.6022C163.378 32.2589 159.927 36.2357 154.662 36.2357H147.117V7.62673H154.662C159.985 7.62673 163.378 11.6035 163.378 19.2603V24.6022Z" fill="white"/>
<path d="M179.697 22.881H197.245V18.9043H179.697V7.62688H198.532V3.70947H175.427V40.2126H199.819V36.2359H179.697V22.881Z" fill="white"/>
<path d="M255.972 3.70947H255.856H247.432L237.138 40.2126H241.759L244.976 28.5791H258.312L261.529 40.2126H266.15L255.972 3.70947ZM246.087 24.6023L249.948 9.94172C250.591 7.44882 250.65 6.85527 250.591 5.78689H252.755C252.755 6.85527 252.755 7.38947 253.399 9.94172L257.259 24.6023H246.087Z" fill="white"/>
<path d="M276.796 3.70947H272.468V40.2126L295.865 40.3313V36.2359H276.796V3.70947Z" fill="white"/>
<path d="M318.034 24.6019C316.337 22.5244 314.992 21.8122 313.939 21.8122V19.9128C314.992 19.9128 315.636 19.438 317.566 17.1825L328.914 3.53094H323.766L310.839 18.7851H308.499V3.64965H304.171V40.2121H308.499V22.8806H311.132L324.994 40.2121H330.668L318.034 24.6019Z" fill="white"/>
<path d="M82.6571 51.1929H78.3286V87.6961L101.726 87.8148V83.7193H82.6571V51.1929Z" fill="white"/>
<path d="M126.41 51.1929H117.987L107.692 87.6961H112.313L115.53 76.0626H128.867L132.084 87.6961H136.705L126.41 51.1929ZM116.642 72.0858L120.502 57.4252C121.263 54.5168 121.146 54.8136 121.146 53.2703H123.31C123.31 54.7542 123.193 54.4574 123.953 57.4252L127.814 72.0858H116.642Z" fill="white"/>
<path d="M161.155 69.1773V67.2779C165.834 65.5566 166.478 63.3605 166.478 60.3928C166.478 54.8728 162.559 51.1334 154.37 51.1334H142.788V87.6366H155.072C163.729 87.6366 167.999 83.4224 167.999 77.1308C167.999 73.6289 166.478 70.3643 161.155 69.1773ZM147.117 55.1695H154.37C159.4 55.1695 162.325 56.416 162.325 60.7489C162.325 64.8444 159.4 66.4469 154.37 66.4469H147.117V55.1695ZM155.072 83.7192H147.117V70.3643H155.072C160.395 70.3643 163.612 72.3231 163.612 77.0121C163.612 81.9385 160.395 83.7192 155.072 83.7192Z" fill="white"/>
<path d="M189.056 66.9812C180.926 64.5476 179.697 62.4702 179.697 59.7399C179.697 56.6534 182.505 54.3386 186.6 54.3386C190.811 54.3386 193.56 56.8909 194.379 62.4702H198.766C197.889 54.9322 194.028 50.4806 186.717 50.4806C179.346 50.4806 175.486 54.9915 175.486 60.3928C175.486 66.2096 179.697 68.7618 186.249 70.6612C192.8 72.6199 195.549 74.4005 195.549 78.1992C195.549 81.7605 192.449 84.4314 187.243 84.4314C182.739 84.4314 179.288 81.6418 178.527 76.0624H174.199C175.076 83.6005 179.639 88.4082 187.243 88.4082C195.783 88.4082 199.878 83.6598 199.878 78.2586C199.819 71.4328 195.198 68.8805 189.056 66.9812Z" fill="white"/>
<path d="M229.241 3.64996L227.662 32.0809L227.447 36.1763H226.18C226.18 36.1763 226.141 34.9892 225.79 32.0809L223.45 14.0964H219.395H215.339L212.999 32.0809C212.648 34.9892 212.609 36.1763 212.609 36.1763H211.342L211.128 32.0809L209.529 3.64996H205.2L207.657 40.1531H215.846L218.244 19.557C218.381 18.548 218.381 17.0246 218.361 16.2529H220.389C220.389 17.0048 220.389 18.548 220.506 19.557L222.904 40.1531H231.093L233.569 3.64996H229.241Z" fill="white"/>
<path fill-rule="evenodd" clip-rule="evenodd" d="M1.46899 29.6772H60.2888V32.6449H1.46899V29.6772Z" fill="#FFCF2B"/>
<path fill-rule="evenodd" clip-rule="evenodd" d="M1.46899 59.4139H60.2888V62.3817H1.46899V59.4139Z" fill="#FFCF2B"/>
<path fill-rule="evenodd" clip-rule="evenodd" d="M0 0.0591125H61.6991V92.0591H0V0.0591125ZM2.93805 3.02685V89.0914H58.7611V3.02685H2.93805Z" fill="#FFCF2B"/>
</svg>
